# xmcd CD database file
#
# Track frame offsets:
#	150
#	16492
#	32125
#
# Disc length: 691 seconds
#
# Revision: 3
# Processed by: cddbd v1.5.2PL0 Copyright (c) Steve Scherf et al.
# Submitted via: CDex 1.81
#
DISCID=1c02b103
DTITLE=Jimmy Nail - Country Boy
DYEAR=1996
DGENRE=Pop
TTITLE0=Country Boy
TTITLE1=Until the Day I Die
TTITLE2=Just Can't Win
EXTD=YEAR: 1996
EXTT0=
EXTT1=
EXTT2=
PLAYORDER=
